<?xml version="1.0" encoding="utf-8"?>
<!-- Generator: Adobe Illustrator 16.0.0, SVG Export Plug-In . SVG Version: 6.00 Build 0)  -->
<!DOCTYPE svg PUBLIC "-//W3C//DTD SVG 1.1//EN" "http://www.w3.org/Graphics/SVG/1.1/DTD/svg11.dtd">
<svg version="1.1" id="Layer_1" xmlns="http://www.w3.org/2000/svg" xmlns:xlink="http://www.w3.org/1999/xlink" x="0px" y="0px"
	 width="250px" height="250px" viewBox="0 0 250 250" enable-background="new 0 0 250 250" xml:space="preserve">
<g id="Layer_3">
	<rect fill="#F9ECDC" width="250" height="250"/>
	<path fill="#A28A83" d="M175.663,102.357c2.099,1.509,3.095,3.51,4.235,5.393c0.549,0.906,0.957,0.963,1.512,0.045
		c0.633-1.049,2.102-1.502,2.229-3.015c-0.94-0.142-1.236,0.674-1.812,0.985c-0.354,0.189-0.746,0.408-1.1,0.113
		c-0.336-0.283-0.396-0.85-0.131-1.084c0.827-0.734,1.002-1.896,1.981-2.586c0.796-0.561,1.261-0.461,1.844,0.062
		c0.167,0.148,0.386,0.494,0.325,0.601c-0.596,1.038,0.245,1.797,0.447,2.675c0.025,0.121-0.086,0.357-0.197,0.412
		c-2.076,1.038-2.872,3.247-4.389,4.797c-0.541,0.553-1.104,0.566-1.297-0.066c-0.361-1.174-1.764-1.66-1.81-3.02
		c-0.019-0.5-0.593-0.682-1.024-0.906c-1.474-0.762-1.945-2.476-3.229-3.441c-0.332-0.25-0.271-0.908,0.175-0.963
		c1.033-0.128,0.92-1.004,1.186-1.59c0.617-1.367,1.691-2.277,2.863-3.109c0.336-0.239,0.721-0.375,1.094-0.07
		c0.445,0.364,0.486,0.885,0.18,1.282c-0.582,0.749-1.096,1.317-0.826,2.503C178.083,102.116,176.758,102.113,175.663,102.357z
		 M174.76,102.297c-0.16,0.834,0.084,1.256,0.655,1.5c0.183,0.078,0.308,0.012,0.378-0.175c0.268-0.696-0.201-0.983-0.697-1.251
		C175.029,102.336,174.943,102.336,174.76,102.297z"/>
	<path fill="#A28A83" d="M182.221,113.292c1.566,0.444,2.225,1.806,3.553,1.886c0.053,0.004,0.146,0.131,0.137,0.184
		c-0.334,1.627,1.32,1.729,1.969,2.598c0.262,0.352,0.307,1.008,0.979,0.569c0.681-0.442,0.773-0.978,0.117-1.53
		c-0.854-0.717-0.834-1.605-0.414-2.468c-0.662-0.531-0.974,0.102-1.396,0.185c-1.104,0.215-1.668-0.348-1.922-1.298
		c-0.267-0.991,0.221-1.579,1.362-1.776c1.278-0.221,2.481,0.308,2.979,1.57c0.24,0.609,0.391,0.824,0.93,0.487
		c0.932-0.583,1.532-0.219,1.852,0.674c0.195,0.552,0.537,0.964,0.884,1.394c0.435,0.54,0.372,1.037-0.167,1.434
		c-1.211,0.889-2.348,1.977-3.699,2.545c-0.953,0.402-2.035-0.512-3.007-0.928C185.412,118.408,182.988,115.046,182.221,113.292z"/>
	<path fill="#A28A83" d="M200.141,120.672c-0.397,1.279,0.769,1.631,1.168,2.824c-1.014-1.526-2.385-1.943-3.453-2.781
		c-0.61-0.477-1.304-0.222-1.765,0.172c-0.731,0.625-1.653,0.462-2.45,0.795c-0.802,0.335-1.328-0.364-1.656-1
		c-0.327-0.635,0.098-0.963,0.652-1.28c0.75-0.427,1.354-1.212,2.139-1.444c0.82-0.243,1.189,0.861,1.902,1.229
		c2.083,1.07,2.483,1.107,3.916-0.77c0.661-0.864,1.227-1.287,2.028-0.266c0.499,0.637,1.095,0.92,1.877,0.691
		c0.461-0.135,0.851-0.064,0.873,0.439c0.021,0.451,0.205,1.002-0.159,1.366c-0.281,0.282-0.783,0.346-1.117,0.101
		c-0.572-0.422-1.066-0.949-1.604-1.422c-0.236-0.208-0.517-0.449-0.827-0.19c-0.354,0.294-0.378,0.734-0.088,1.053
		c0.314,0.345,0.781,0.548,1.111,0.884c0.449,0.459,0.463,1.159,0.086,1.528c-0.474,0.462-1.06,0.064-1.405-0.388
		C201.003,121.735,201.007,120.979,200.141,120.672z"/>
	<path fill="#A28A83" d="M191.479,124.455c1.739-1.335,1.739-1.335,3.539-0.111c0.77-0.582,1.012-2.129,2.697-1.467
		c0.395,0.494-0.845,0.949-0.498,1.639c0.129,0.064,0.285,0.21,0.381,0.178c0.596-0.205,1.166-0.484,1.768-0.664
		c0.352-0.105,0.754,0.229,0.635,0.478c-0.443,0.919-0.396,1.479,0.646,1.969c0.354,0.166,0.445,1.021-0.498,1.084
		c-1.588,0.104-3.223-0.28-4.754,0.504c-0.379,0.193-0.715-0.26-0.979-0.53C193.423,126.521,192.458,125.486,191.479,124.455z"/>
	<path fill="#A28A83" d="M174.279,98.297c-1.555-0.592-1.541-2.361-2.658-3.26c-1.094-0.879-1.876-2.178-3.619-1.837
		c0.795-1.604,0.805-1.615,1.73-0.801c0.291,0.257,0.596,0.813,0.938,0.576c1.605-1.112,2.553,1.003,3.961,0.737
		c0.112-0.021,0.283,0.141,0.393,0.25c0.367,0.371,0.666,0.903-0.018,1.096c-1.852,0.522-1.531,1.393-0.562,2.502
		C174.529,97.66,174.355,97.988,174.279,98.297z"/>
	<path fill="#A28A83" d="M151.211,71.521c-0.545,0.428-1.638,0.602-0.639,1.677c0.553,0.595,0.193,1.171-0.32,1.643
		c-0.232,0.214-0.457,0.46-0.814,0.307c-0.344-0.147-0.463-0.456-0.318-0.767c0.176-0.381,0.294-0.756,0.1-1.129
		c-0.092-0.178-0.336-0.379-0.519-0.384c-0.413-0.015-0.656,1.247-1.2,0.224c-0.35-0.652,0.457-1.016,0.773-1.299
		c0.895-0.8,1.266-1.907,1.936-2.826c0.453-0.623,0.889-0.635,1.381-0.339c0.587,0.354,0.27,0.792-0.062,1.169
		c-0.452,0.523-1.16,1-0.316,1.759V71.521z"/>
	<path fill="#A28A83" d="M202.188,138.827c0.984,0.698,1.762,1.509,3.133,0.944c0.451-0.188,1.267,0.166,1.291,1.037
		c0.012,0.312,0.019,0.639,0.101,0.938c0.195,0.723,0.89,1.62-0.163,2.047c-0.917,0.373-1.293-0.704-1.729-1.271
		C203.911,141.344,203.236,139.992,202.188,138.827z"/>
	<path fill="#A28A83" d="M160.305,82.287c-0.762-0.358-0.764-1.236-1.312-1.711c-0.433-0.374-1.451-0.586-0.884-1.359
		c0.369-0.5,1.27-0.624,1.979-0.576c0.784,0.053,1.241,0.659,1.621,1.287c0.02,0.033-0.143,0.254-0.225,0.258
		C159.979,80.266,161.047,81.664,160.305,82.287z"/>
	<path fill="#A28A83" d="M130.658,44.318c0.396-0.376,0.777-0.771,1.193-1.123c0.354-0.301,0.727-0.228,1.026,0.104
		c0.328,0.359,0.278,0.798-0.106,0.99c-0.996,0.497-1.855,1.134-2.578,1.98c-0.137,0.158-0.42,0.194-0.633-0.003
		c-0.271-0.25-0.305-0.575-0.088-0.824c0.354-0.411,0.777-0.76,1.174-1.136C130.65,44.311,130.654,44.314,130.658,44.318z"/>
	<path fill="#A28A83" d="M151.209,71.556c0.975-0.49,1.672-1.29,2.486-2.024c0.631,0.435-0.176,0.875-0.184,1.349
		c-0.015,0.634,0.094,1.369-0.625,1.659c-0.926,0.373-1.137-0.64-1.678-1.018V71.556z"/>
	<path fill="#A28A83" d="M156.818,72.979c0.442,0.98-0.291,1.804,0.102,2.646c0.18,0.383-0.188,0.807-0.588,0.84
		c-0.604,0.053-0.943-0.457-1.292-0.874c-0.222-0.267-0.317-0.68-0.011-0.795C155.875,74.479,156.16,73.599,156.818,72.979z"/>
	<path fill="#A28A83" d="M169.702,87.16c0.051,1.673-1.101,2.183-1.823,2.982c-0.221,0.245-0.538,0.357-0.818,0.058
		c-0.308-0.333-0.383-0.813-0.068-1.075C167.771,88.472,168.635,87.92,169.702,87.16z"/>
	<path fill="#A28A83" d="M171.005,98.551c0.265,0.527,1.313,0.889,0.745,1.5c-0.615,0.664-1.223-0.187-1.755-0.574
		c-0.25-0.184-0.478-0.424-0.651-0.681c-0.262-0.388-0.531-0.853-0.013-1.22c0.399-0.285,0.737,0.041,1.028,0.302
		C170.594,98.087,170.797,98.331,171.005,98.551z"/>
	<path fill="#A28A83" d="M162.684,91.129c0.066-1.081,0.688-1.615,1.08-2.233c0.172-0.269,0.525-0.379,0.838-0.154
		c0.34,0.241,0.254,0.582,0.029,0.819C164.15,90.072,163.793,90.734,162.684,91.129z"/>
	<path fill="#A28A83" d="M166.395,94.295c0.945,0.132,1.258,1.268,2.193,1.482c0.414,0.096,0.381,0.646,0.156,1
		c-0.314,0.489-0.666,0.217-0.941-0.059c-0.635-0.639-1.246-1.303-1.865-1.955C166.089,94.607,166.242,94.451,166.395,94.295z"/>
	<path fill="#A28A83" d="M169.552,79.221c-0.64-0.068-1.231-0.143-1.835-0.145c-0.604,0-0.625-0.594-0.486-1.066
		c0.146-0.507,0.596-0.467,0.957-0.334C168.883,77.928,169.193,78.564,169.552,79.221z"/>
	<path fill="#A28A83" d="M167.896,86.354c-0.287,1.18-0.996,1.605-1.854,1.841c-0.212,0.058-0.476-0.03-0.578-0.292
		c-0.088-0.221-0.171-0.486,0.074-0.631C166.193,86.881,166.777,86.309,167.896,86.354z"/>
	<path fill="#A28A83" d="M189.213,121.514c1.086-0.037,1.911-0.113,2.08,0.948c0.057,0.345-0.251,0.66-0.525,0.672
		C189.809,123.174,189.507,122.493,189.213,121.514z"/>
	<path fill="#A28A83" d="M196.085,131.078c-1.306-0.02-1.647-0.912-2.327-1.919C195.468,129.141,195.393,130.516,196.085,131.078z"
		/>
	<path fill="#A28A83" d="M208.105,143.996c0.438-0.406,0.893-0.25,1.287,0.023c0.446,0.307,0.571,0.832,0.293,1.252
		c-0.354,0.525-0.843,0.209-1.229-0.054C208.021,144.925,207.827,144.521,208.105,143.996z"/>
	<path fill="#A28A83" d="M135.52,41.18c0.186,0.312,0.117,0.594-0.168,0.777c-0.379,0.243-0.733,0.111-1.012-0.196
		c-0.244-0.274-0.199-0.552,0.137-0.722C134.846,40.853,135.205,40.889,135.52,41.18z"/>
	<path fill="#A28A83" d="M186.074,108.506c0.281,0.369,0.061,0.643-0.152,0.846c-0.408,0.387-0.873,0.773-1.354,0.086
		c-0.117-0.172-0.25-0.453,0.063-0.588C185.098,108.654,185.5,108.125,186.074,108.506z"/>
	<path fill="#A28A83" d="M201.213,136.148c0.883-0.377,1.508-0.676,1.938,0.059c0.203,0.352,0.062,0.893-0.312,1.025
		C202.023,137.521,201.854,136.729,201.213,136.148z"/>
	<path fill="#A28A83" d="M148.107,68.543c0.561-0.998,0.879-1.516,1.826-1.607C149.721,67.916,149.137,68.113,148.107,68.543z"/>
	<path fill="#A28A83" d="M139.307,63.795c-0.199-0.234-0.449-0.497-0.145-0.781c0.289-0.268,0.578-0.035,0.804,0.165
		c0.229,0.202,0.468,0.476,0.155,0.761C139.838,64.198,139.553,63.998,139.307,63.795z"/>
	<path fill="#A28A83" d="M132.73-10.089c0.192-0.122,0.455-0.28,0.604-0.077c0.331,0.448-0.096,0.691-0.372,0.928
		c-0.174,0.148-0.446,0.255-0.563-0.065C132.275-9.637,132.484-9.885,132.73-10.089z"/>
	<path fill="#A28A83" d="M164.843,74.037c0.04,0.225,0.175,0.538,0.093,0.61c-0.408,0.362-0.693-0.028-0.938-0.278
		c-0.122-0.123-0.21-0.495-0.133-0.568C164.279,73.4,164.505,73.893,164.843,74.037z"/>
	<path fill="#A28A83" d="M199.212,132.973c-0.673-0.18-1.116-0.516-0.931-1.273c0.021-0.083,0.277-0.19,0.388-0.157
		C199.453,131.779,199.464,132.326,199.212,132.973z"/>
	<path fill="#A28A83" d="M196.07,117.205c0.962,0.398,1.201,0.998,1.938,1.729C197.014,118.432,196.688,117.908,196.07,117.205z"/>
	<path fill="#A28A83" d="M183.715,117.236c-0.855-0.506-1.49-0.867-1.746-1.818C182.885,115.727,183.225,116.374,183.715,117.236z"
		/>
	<path fill="#A28A83" d="M131.729,57.747c0.16-0.185,0.371-0.326,0.596-0.188c0.252,0.155,0.186,0.412,0.039,0.617
		c-0.145,0.201-0.375,0.315-0.596,0.184C131.503,58.203,131.6,57.961,131.729,57.747z"/>
	<path fill="#A28A83" d="M160.633,87.903c0.182-0.216,0.406-0.208,0.631-0.099c0.23,0.115,0.366,0.319,0.303,0.578
		c-0.062,0.261-0.287,0.384-0.523,0.275C160.74,88.521,160.561,88.266,160.633,87.903z"/>
	<path fill="#A28A83" d="M197.643,133.012c0.207-0.186,0.424-0.158,0.61,0.01c0.179,0.16,0.257,0.395,0.085,0.584
		c-0.173,0.193-0.423,0.182-0.613,0.004C197.548,133.443,197.505,133.232,197.643,133.012z"/>
	<path fill="#A28A83" d="M212.924,149.104c-0.303,0.258-0.585,0.1-0.783-0.111c-0.184-0.198-0.414-0.484-0.082-0.762
		c0.284-0.233,0.6-0.115,0.812,0.088C213.087,148.523,213.199,148.82,212.924,149.104z"/>
	<path fill="#A28A83" d="M201.798,111.551c0.103,0.234,0.099,0.468-0.118,0.62c-0.065,0.049-0.229-0.036-0.35-0.06
		c0.084-0.205,0.169-0.411,0.252-0.617C201.581,111.494,201.798,111.551,201.798,111.551z"/>
	<path fill="#1C829F" d="M212.807,163.78c0.168,0.157,0.383,0.312,0.668,0.471C213.252,164.094,213.027,163.938,212.807,163.78z
		 M92.164,0c0.221,0.216,0.45,0.422,0.705,0.603c0.69,0.486,1.066,1.282,0.714,2.02c-0.956,2.01-0.047,2.925,1.683,3.813
		c1.814,0.932,1.809,1.488,1.031,3.466c-0.38,0.964-1.041,1.631-1.749,2.324c-1.501,1.468-2.547,3.25-3.521,5.106
		c-1.451,2.756-2.035,6.016-4.738,8.069c-0.453,0.345-0.546,1.165-0.809,1.761c-0.214,0.489-0.255,1.133-0.881,1.292
		c-2.137,0.542-1.654,2.608-2.324,3.991c-0.17,0.349-0.068,0.823,0.442,1.086c2.726,1.403,3.994,4.294,4.543,6.722
		c0.833,3.674,2.756,6.044,5.529,8.112c0.617,0.458,1.462,0.787,1.803,1.396c0.722,1.302,1.743,1.814,3.144,2.011
		c0.603,0.084,1.186,0.548,1.7,0.943c1.735,1.334,3.433,1.849,5.292,0.175c0.975-0.879,1.649-0.3,1.739,0.757
		c0.146,1.741,0.118,3.644,1.22,4.968c1.559,1.873,0.511,4.462,2.089,6.229c0.08,0.088-0.021,0.516-0.08,0.527
		c-1.946,0.342-0.936,1.497-0.709,2.459c0.148,0.636,0.341,1.467-0.555,1.592c-0.997,0.139-2.794,0.662-2.772-0.704
		c0.047-2.702-1.719-1.889-3.039-2.125c-0.216,2.217-0.215,2.208-2.597,2.173c-0.312-0.004-0.787-0.017-0.908,0.164
		c-0.77,1.144-1.749,0.796-2.86,0.705c-1.85-0.147-3.359,1.94-3.108,3.973c3.242-2.587,3.893-2.501,5.579,0.749
		c-0.794,0.37-1.294-0.81-2.158-0.35c-0.17,1.045,1.265,1.615,0.808,2.928c-0.479,1.381,0.905,2.215,1.878,1.95
		c1.359-0.373-0.477-1.388,0.039-2.252c0.604,0.004,0.644,0.785,1.105,0.934c0.622,0.198,1.263,0.341,1.896,0.499
		c2.678,0.667,3.096,1.954,1.31,4.048c0.465,0.719,1.145,0.417,1.776,0.381c0.75-0.042,1.318,0.268,1.403,1.048
		c0.092,0.845-0.197,1.909,1.018,2.088c0.938,0.14,1.588-0.625,2.281-1.15c0.605-0.456,0.855-1.292,1.64-1.565
		c1.483,1.969,1.483,1.971,3.603,0.948c0.198-0.094,0.369-0.261,0.573-0.318c0.997-0.282,1.954-0.285,2.698,0.586
		c0.687,0.798,0.625,1.427-0.233,2.173c-0.592,0.513-0.139,1.236,0.412,1.652c0.577,0.439,0.992,0.051,1.347-0.415
		c0.53-0.694,1.126-1.347,1.599-2.08c0.823-1.276,0.563-1.943-0.873-2.432c-0.695-0.237-1.46-0.016-2.108-0.678
		c-3.09-3.146-2.735-6.497,1.045-8.962c1.325-0.862,2.879-1.393,3.751-2.879c0.271-0.461,0.753-0.67,1.412-0.479
		c2.656,0.775,3.191,1.887,2.035,4.425c-0.088,0.196-0.246,0.375-0.297,0.577c-0.168,0.676,0.301,1.306,0.771,0.909
		c1.485-1.26,2.206-0.083,3.256,0.63c1.39,0.938,2.435,2.205,3.599,3.344c3.692,3.618,8.217,6.19,11.985,9.707
		c2.109,1.971,4.451,3.602,7.413,4.117c0.902,0.158,1.12,0.822,0.909,1.755c-0.149,0.659-1.163,0.786-0.856,1.643
		c0.512,0.962,1.946,0.408,2.434,1.427c1.088,2.275,3.482,2.725,5.441,3.251c1.53,0.411,1.409,0.553,0.957,1.726
		c-0.226,0.581,0.312,1.252,1.172,1.18c0.939-0.077,0.883-0.639,0.778-1.39c-0.325-2.339-1.092-3.268-3.385-3.709
		c-0.497-0.096-0.817-0.219-0.835-0.743c-0.043-1.286-0.409-2.68,1.275-3.559c0.351,0.498,0.711,1.01,1.068,1.524
		c1.67,2.398,2.137,2.485,4.902,1.015c0.255-0.136,0.666-0.149,0.936-0.04c0.312,0.129,0.393,0.529,0.207,0.828
		c-0.854,1.407-0.365,2.276,1.094,2.718c0.642,0.193,1.34,0.206,0.846,1.209c-0.362,0.731-0.817,0.957-1.555,0.578
		c-0.556-0.285-1.072-0.809-1.815-0.28c-0.345,0.833-0.921,2.52-0.632,2.542c2.244,0.177,1.23,2.135,1.912,3.097
		c0.643,0.912,1.312,1.777,2.584,1.776c0.865-0.003,1.729,0.001,2.574,0.002c0.688,1.1,0.139,2.904,1.846,3.252
		c1.721,0.349,2.037,1.643,2.558,3.075c-1.192-0.374-2.283-1.21-2.824,0.537c-0.338,1.091-0.448,1.983,0.854,2.589
		c0.875,0.409,1.617,1.1,2.218,1.522c2.573-0.965,3.054-4.376,6.058-4.483c1.057,1.794,1.295,4.105,3.176,4.992
		c2.08,0.984,3.078,2.868,4.555,4.355c2.015-1.629,2.02-1.632,0.484-3.2c-0.354-0.364-0.854-0.653-0.127-1.751
		c0.323,1.7,2.588,0.987,2.606,2.62c0.03,2.359,0.558,4.824-0.626,7.071c-0.439,0.833-0.395,1.428,0.374,1.965
		c2.467,1.719,4.542,4.199,8.414,4.119c-1.277-1.626-2.249-3.237-0.039-4.569c0.062-0.037-0.095-0.406-0.11-0.623
		c-0.043-0.578,0.071-1.167,0.703-1.285c0.721-0.137,1.229,0.351,1.607,0.924c0.781,1.188,0.676,2.781,1.761,3.832l0.308,0.019
		c1.59-0.262,1.944-2.038,3.096-2.854c0.367,0.5,0.402,0.873,0.184,1.109c-2.243,2.423-1.382,5.171-0.846,7.883
		c0.186,0.938,1.021,1.44,1.693,0.979c1.725-1.183,2.594,0.241,3.738,0.932c1.559,0.941,2.389,2.712,4.271,3.401
		c0.787,0.29,1.746,1.341,2.021,2.461c0.486,1.979,3.222,2.556,3.056,4.967c-0.015,0.188,0.689,0.479,1.092,0.633
		c0.818,0.314,1.65,0.578,2.484,0.84c1.975,0.616,2.172,1.021,1.193,2.994c-0.188,0.383-0.428,0.702-0.496,1.15
		c-0.227,1.449,0.639,1.938,1.825,2.135c0.919,0.155,2.22,0.757,1.618-1.188c-0.139-0.448,0.056-0.545,0.47-0.493
		c2.42,0.298,3.916,2.229,5.892,3.312c1.243,0.687,0.205,1.5,0.155,2.268c-0.032,0.503,0.373,0.765,0.713,1.015
		c0.701,0.513,1.062,1.049,0.49,1.906c-0.226,0.335-0.431,0.812-0.019,1.185c0.498,0.443,1.068,0.223,1.515-0.059
		c0.444-0.287,0.753-0.783,1.167-1.129c0.518-0.432,1.354-0.256,1.338,0.222c-0.059,2.129,1.057,2.567,2.863,2.408
		c0.394-0.035,0.843,0.336,0.799,0.866c-0.051,0.59-0.502,1.242-1,0.955c-1.126-0.65-1.854,0.244-2.764,0.398
		c-1.209,0.204-2.715,0.282-3.41-0.654c-1.84-2.475-4.691-3.673-6.76-5.646c0.073-1.012,1.479-1.113,1.145-2.229
		c-1.646,0.952-2.719-0.188-3.863-0.992c-1.738-1.217-3.417-2.652-5.71-1.151c-0.04,0.028-0.278-0.238-0.435-0.38
		c0.17-0.659,1.419-0.904,0.791-1.855c-0.489-0.746-1.232-0.84-2.029-0.525c-0.195,0.076-0.348,0.318-0.539,0.342
		c-1.141,0.146-1.13-0.15-0.875-1.518c0.148-0.809,1.234-2.513-1.184-2.35c-0.995,0.064-1.698-0.904-2.508-1.458
		c-0.813-0.556-1.453-1.545-2.791-1.372c0.516,1.13,1.555,1.377,2.295,1.973c0.512,0.406,1.121,0.718,1.562,1.188
		c0.885,0.942,0.396,2.456-1.086,3.554c-1.189,0.879-1.975,0.014-2.309-0.859c-0.514-1.334-1.603-2.475-1.047-4.629
		c-2.766,2.082-4.654,3.979-5.908,6.402c1.136,0.803,2.269,1.6,3.4,2.396c-0.93-0.871-0.199-1.754,0.584-2.639
		c-0.199-0.26-0.313-0.521-0.002-0.766c0.061-0.048,0.26-0.034,0.275,0.005c0.127,0.3,0.104,0.576-0.219,0.761
		c1.699,0.758,2.478,2.002,2.051,3.881c-0.072,0.315-0.245,0.654-0.191,0.953c0.147,0.842,0.562,1.575,1.514,0.935
		c0.562-0.375,1.121-0.652,1.742-0.83c1.604-0.462,2.193-0.083,2.381,1.575c0.058,0.517-0.062,1.052-0.104,1.57
		c-1.169-0.021-1.682-1.258-2.971-1.113c1.195,1.271,2.26,2.5,3.445,3.595c0.258,0.24,2.076,2.115,1.186-0.632
		c-0.082-0.249,0.953-0.264,1.335,0.193c0.388,0.459,0.313,0.949,0.044,1.51c-0.311,0.637,0.213,1.005,0.729,1.207
		c0.688,0.27,1.098-0.217,1.162-0.76c0.233-1.912,2.252-2.803,2.574-4.748c0.116-0.697,1.414-1.234,2.227-1.769
		c0.203-0.137,0.699-0.086,0.889,0.082c0.202,0.175,0.3,0.595,0.271,0.896c-0.078,0.834-0.758,1.242-1.317,1.768
		c-1.031,0.961-2.091,1.956-2.537,3.341c-0.299,0.929-0.599,2.058,0.967,2.199c1.175,0.106,1.457,0.771,1.313,1.794
		c-0.084,0.596-0.633,1.246,0.367,1.82c1.336-0.904,2.855-1.121,4.287-0.158c0.832-0.786,0.828-1.721,1.086-2.526
		c0.275-0.86-1.629-1.214-0.603-2.401c0.433,0.498,0.796,1.041,1.282,1.438c1.412,1.157,1.77,1.112,3.197-0.584
		c0.487-0.582,0.858-0.562,1.305-0.12c0.471,0.47,0.751,1.062,0.867,1.772c-1.389,0.613-2.857,1.103-4.156,1.875
		c-1.736,1.031-1.74,2.248-0.145,3.518c0.42,0.333,0.996,0.471,0.787,1.27c-1.544,0.898-1.854-2.78-3.746-0.959
		c0.803,1.136,1.11,2.164,0.541,3.773c-0.858,2.428-0.048,3.338,2.711,4.404c0.866,0.336,1.332,1.158,2.127,1.479
		c0.623,0.252,1.433,1.871,2.018-0.064c1.332,0.449,2.859,0.224,4.059,1.145c0.422,0.322,1.021,0.646,0.28,1.205
		c-0.769,0.584-0.899,1.235-0.229,1.922c0.646,0.659,1.391,0.493,2.098,0.055c0.462-0.285,0.875-0.676,1.365-0.887
		c0.117-0.052,0.234-0.082,0.35-0.103V0H92.164z M98.326,71.225c1.146,0.154,2.453-0.085,3.246,1.153
		C100.027,73.115,98.831,73.141,98.326,71.225z M108.675,76.306c-0.324,0.589-0.864,0.548-1.412,0.323
		c-0.521-0.357-0.787-0.826-0.302-1.336c0.347-0.366,0.822-0.846,1.396-0.441C108.846,75.195,108.97,75.766,108.675,76.306z
		 M109.233,79.56c-0.082-0.188-0.244-0.458-0.307-0.747c-0.054-0.249,0.169-0.347,0.361-0.133c0.205,0.224,0.367,0.517,0.449,0.806
		C109.801,79.703,109.593,79.77,109.233,79.56z M110.924,72.698c-0.268,0.532-0.703,0.259-1.083,0.078
		c-0.474-0.325-0.85-0.733-0.383-1.275c0.282-0.327,0.793-0.377,1.187-0.178C111.263,71.633,111.17,72.215,110.924,72.698z
		 M114.685,69.85c-0.676,0.841-1.328,0.516-1.97,0.025c-0.591-0.452-1.342-0.874-0.811-1.799c0.431-0.749,2.438-1.426,2.792-0.956
		C115.382,68.023,114.84,68.961,114.685,69.85z M134.752,78.331c-0.873-0.417-2.098-0.966-2.32-1.706
		c-0.476-1.583-2.006-2.171-2.779-3.793c4.996-0.161,6.433,0.792,5.908,3.963c0.473-0.394,0.852-0.79,1.303-1.063
		c0.289-0.176,0.729,0.01,0.771,0.33C137.812,77.35,135.916,78.884,134.752,78.331z M142.51,83.054
		c-0.484,0.724-1.141,0.115-1.764-0.359c-1.045-1.274-2.914-2.255-2.41-4.48c0.12-0.533,0.127-1.42,1.098-1.294
		c0.64,0.082,0.957,0.603,0.922,1.162c-0.086,1.34,0.188,2.167,1.733,2.555C143.384,80.959,143.049,82.255,142.51,83.054z
		 M145.742,85.298c-0.883-0.099-1.361-0.681-1.448-1.474c-0.058-0.524,0.235-1.107,0.815-1.265c0.724-0.197,0.983,0.337,0.979,0.926
		C146.09,84.091,146.445,84.797,145.742,85.298z M166.562,95.953c-0.444-0.162-0.59-0.526-0.519-0.983
		c0.154-0.374,0.459-0.436,0.714-0.197c0.2,0.19,0.35,0.508,0.385,0.785C167.184,95.928,166.891,96.073,166.562,95.953z
		 M176.154,109.328c-0.551,0.305-1.002-0.125-1.266-0.634c-0.238-0.454-0.438-0.929-0.756-1.612
		c0.959,0.049,1.656-0.046,2.059,0.598C176.529,108.218,176.952,108.884,176.154,109.328z M180.334,110.742
		c1.49-0.177,1.764,0.597,1.945,1.916C181.08,112.263,181.121,111.312,180.334,110.742z M188.361,115.963
		c-0.286,0.263-0.631,0.188-0.9,0.025c-0.92-0.553-1.962-0.962-2.572-1.917c-0.26-0.402-0.225-0.425,1.068-3.231
		c0.902,1.362,1.775,2.657,2.617,3.973C188.837,115.22,188.723,115.637,188.361,115.963z M194.07,120.186
		c-1.038,1.225-1.375-0.128-1.979-0.586c-0.579-0.442-1.028-0.168-1.247,0.438c-0.207,0.581-0.621,0.836-1.17,0.974
		c-0.357-2.064,1.35-2.572,2.605-2.964c2.562-0.803,2.728-0.88,1.527-3.417c0.5,0.272,0.854,0.514,1.245,0.667
		c2.037,0.806,2.272,1.743,1.118,3.485C195.622,119.615,194.646,119.504,194.07,120.186z M196.654,130.842
		c1.889,0.58,1.889,0.58,2.309,2.051C197.93,132.73,197.238,132.173,196.654,130.842z M201.646,128.123
		c-0.145,0.387-0.482,0.203-0.746,0.035c-0.219-0.235-0.418-0.518-0.232-0.822c0.198-0.326,0.583-0.304,0.783-0.056
		C201.618,127.49,201.732,127.893,201.646,128.123z M233.246,168.525c1.421,1.145,2.512,1.723,2.9,3.363
		C234.464,171.48,233.512,170.777,233.246,168.525z"/>
</g>
<g id="Layer_1_1_">
	<path fill="#212529" d="M197.809,211.791c-0.022-0.012-0.043-0.025-0.065-0.037c0.012,0.021,0.021,0.043,0.034,0.064
		L197.809,211.791z M79.582,212.872c0,0.013,0,0.024,0,0.037c0.01-0.003,0.02-0.003,0.03-0.007L79.582,212.872z M181.95,206.582
		c0.212,0,0.424,0.004,0.636,0.005C182.377,206.561,182.167,206.548,181.95,206.582z M249.584,203.42
		c0.132-0.109,0.271-0.208,0.416-0.304v-2.154c-0.341,0.065-0.686,0.161-1.027,0.218c-0.703,0.116-2.175,1.244-1.388-0.936
		c0.12-0.331-0.161-0.314-0.386-0.223c-1.355,0.561-1.78-0.57-2.014-1.373c-0.309-1.049-0.904-1.108-1.764-1.138
		c-0.896-0.026-1.73,0.147-2.593,0.349c-2.935,0.686-5.896,1.19-8.919,0.807c-2.281-0.292-4.473,0.141-6.662,0.662
		c-0.341,1.387-3.248-0.119-2.66,2.369c0.072,0.311-0.417,0.352-0.715,0.464c-2.062,0.772-3.775-0.165-5.596-0.915
		c0.754-1.271,1.83,0.459,2.693-0.643c-1.812-0.672-3.549-0.334-5.438-0.552c1.087,1.651,1.076,1.63-0.207,1.88
		c-1.791,0.348-3.646-0.849-5.411,0.235c-0.138,0.084-0.496-0.045-0.663-0.185c-0.827-0.68-1.643-0.897-2.576-0.182
		c-0.246,0.19-0.66,0.137-0.896-0.092c-0.797-0.768-1.439-0.35-2.33-0.061c-0.781,0.252-1.84-0.239-2.785-0.059
		c-0.203,0.039-0.488,0.221-0.537,0.391c-0.604,2.106-2.303,1.533-3.742,1.53c-0.432-0.002-0.928-0.536-1.279,0.039
		c-0.918,1.505-1.543,0.812-2.268-0.188c-0.467-0.643-0.939-0.352-1.324,0.203c-0.365,0.529-0.182,0.849,0.295,1.166
		c0.727,0.483,1.469,0.521,2.285,0.283c1.252-0.361,2.532-0.18,3.807-0.13c0.662,0.025,1.264,0.23,1.791,0.606
		c0.662,0.475,0.584,1.138,0.195,1.686c-0.393,0.557-0.824,0.164-1.178-0.171c-0.301-0.287-0.662-0.562-1.059-0.454
		c-1.84,0.5-3.6-0.505-5.424-0.23c-2.533,0.383-5.084,0.273-7.643,0.261c1.047,0.137,2.002,0.877,3.074,0.56
		c1.139-0.341,2.178-0.48,3.133,0.406c0.337,0.312,0.646,0.174,1.059-0.001c1.838-0.772,3.645,0.116,5.461,0.267
		c0.812,0.066,1.059,0.916,1.104,1.662c0.062,1.006,0.395,1.812,1.324,2.273c-0.323-0.616,1.496-1.098,0.146-1.811
		c-0.482-0.254-1.031-0.67-0.744-1.316c0.295-0.663,0.957-0.727,1.639-0.684c1.643,0.101,3.291,0.152,4.89,0.224
		c0.343-0.981-1.015-1.161-0.581-2.185c3.115-0.398,5.367,1.035,7.244,3.596c-0.744,0.566-1.541,0.359-2.301,0.324
		c-0.555-0.021-1.248-0.174-1.332,0.59c-0.069,0.611,0.554,0.66,1.031,0.731c0.471,0.071,1.158,0.121,1.096,0.681
		c-0.131,1.207,0.787,1.981,1.176,3.029c-1.711-0.123-2.158-0.139-2.747-1.17c-0.583-1.025-1.298-1.254-2.327-1.213
		c-0.43,0.018-0.988,0.164-1.201-0.453c0.135-0.792,1.344-0.966,1.096-1.992c-1.184-0.805-2.65-0.22-3.909-0.77
		c-0.513-0.223-0.897,0.204-1.001,0.736c-0.098,0.507,0.27,0.688,0.682,0.793c0.896,0.227,1.615,0.404,1.354,1.74
		c-0.141,0.721,0.543,1.371,1.645,1c1.615-0.539,1.969-0.328,3.273,1.397c-1.959,0.088-3.844-0.179-5.727,0.226
		c-1.787,0.383-3.721-0.533-5.76,0.416c1.812,0.791,3.729,0.125,5.332,1.51c-2.461,0.018-4.643-0.375-6.837-0.674
		c-3.751-0.512-7.483,0.476-11.195,0.312c-4.759-0.214-9.555,0.397-14.284-0.55c-0.373-0.074-0.791,0.016-1.182,0.08
		c-1.213,0.201-4.332,0.015-5.455-0.416c-0.312-0.12-0.609-0.309-0.865-0.051c-0.959,0.965-1.924,0.305-2.896,0.062
		c-0.243-0.062-0.45,0.073-0.595,0.327c-0.242,0.63,0.842,1.005,0.391,1.703c-0.43,0.33-0.9,0.22-1.377,0.203
		c-3.51-0.123-7.021-0.39-10.523-0.309c-5.584,0.127-11.146,0.098-16.682-0.729c-0.667-0.101-1.566-0.479-2.018,0.229
		c-1.418,2.245-3.478,1.561-5.438,1.316c-0.252-0.028-0.436-0.396-0.82-0.26c-2.889,1.021-5.795,0.191-8.691,0.024
		c-0.375-0.021-0.715-0.22-1.137-0.075c-1.959,0.674-3.951,0.748-5.857-0.095c-1.463-0.646-2.795,0.315-4.209,0.129
		c-0.336-0.045-0.352,0.46-0.336,0.779c0.076,1.462-0.807,1.024-1.199,0.44c-1.137-1.699-2.873-1.455-4.496-1.664
		c-0.67-0.089-1.097,0.129-1.211,0.811c-0.135,0.812-0.688,1.043-1.391,0.96c-1.247-0.146-2.543,0.062-3.731-0.505
		c-0.045-0.021-0.031-0.148-0.065-0.217c-0.762-1.453-1.136-1.748-2.489-1.604c-0.681,0.072-1.271,0.054-1.781-0.414
		c-0.494-0.45-0.937-1.013-0.476-1.655c0.41-0.572,0.978-0.353,1.447,0.068c0.117,0.105,0.234,0.221,0.374,0.284
		c0.245,0.11,0.467,0.004,0.631-0.177c0.19-0.209,0.155-0.539-0.036-0.625c-1.263-0.564-1.736-1.531-1.77-2.885
		c-0.012-0.461-0.648-0.654-1.141-0.695c-0.344-0.027-0.768,0.188-0.703,0.479c0.342,1.543-1.341,2.467-1.143,3.938
		c0.225,0.062,0.467,0.09,0.67,0.191c0.285,0.146,0.557,0.396,0.438,0.729c-0.121,0.341-0.475,0.305-0.787,0.235
		c-0.439-0.102-0.632-0.412-0.715-0.817c-1.72-0.46-1.554-1.835-1.547-3.138c-1.122,0.299-1.771-0.285-2.223-1.224
		c-0.225-0.465-0.226-1.33-0.997-1.012c-0.685,0.28-0.089,0.979-0.104,1.495c-0.012,0.438,0.313,0.934-0.205,1.297
		c-0.471-0.08-0.476-0.619-0.8-0.824c-1.062-0.67-1.249-2.562-3.095-2.17c-0.27,0.059-0.574-0.389-0.304-0.693
		c0.358-0.406,0.56-0.796,0.259-1.277c-0.576-0.922-0.469-1.941-0.32-3.131c-2.23,0.071-4.283,0.141-6.334,0.201
		c-0.622,0.019-1.307,0.269-1.114,0.898c0.222,0.732-0.464,1.688,0.454,2.188c0.557,0.301,0.979,0.037,0.793-0.637
		c-0.207-0.748,0.03-1.041,0.768-1.07c0.476-0.021,0.953-0.067,1.423-0.144c2.2-0.338,2.2-0.342,2.833,1.879
		c0.389,1.37,0.343,1.236-1.201,1.772c-0.812,0.281-1.425,0.49-2.207,0.046c-0.377-0.216-0.793-0.06-0.826,0.487
		c-0.031,0.517,0.106,0.979,0.67,1.108c0.203,0.047,0.455-0.103,0.681-0.175c1.505-0.5,2.303,0.533,3.294,1.365
		c0.949,0.799,0.641,1.328,0.129,2.177c-0.414,0.684,0.306,1.114,0.836,1.496c0.314,0.229,0.679,0.472,0.588,0.946
		c-0.111,0.584-2.454,1.824-3.098,1.565c-1.853-0.745-3.732-0.562-5.635-0.319c-0.588,0.076-1.289,0.295-1.611-0.597
		c0.302-0.452,0.797-0.442,1.256-0.53c0.582-0.107,1.176-0.396,1.111-1.021c-0.087-0.853-0.863-1.104-1.594-1.104
		c-0.539-0.002-1.059,0.356-1.637,0.229c-0.709-0.158-1.135-0.604-1.141-1.329c-0.008-0.771,0.564-0.804,1.163-0.854
		c1.318-0.113,2.612,0.058,4.016,0.476c-0.144-0.63-0.28-1.005-0.307-1.39c-0.12-1.75-0.161-3.444-2.709-3.344
		c-0.713,0.028-1.304-0.582-0.819-1.685c0.315-0.716-1.165-2.571-1.976-2.535c-1.633,0.071-3.337-0.784-4.899,0.304
		c-0.443,0.309-0.703,0.113-0.953-0.277c-0.253-0.398-0.475-0.91-0.852-1.121c-0.916-0.512-1.36-0.896-0.457-1.911
		c0.414-0.468-0.248-0.8-0.762-0.818c-1.197-0.049-2.412-0.194-3.59-0.051c-1.262,0.153-2.486,0.599-3.729,0.912
		c-0.777,2.153-2.584,0.653-3.848,1.081c-1.447-1.598-3.453-0.909-5.19-1.153c-1.599-0.225-3.519-0.475-4.657,1.101
		c-0.902,1.244-2.068,1.467-3.383,1.795c-0.197-1.228,0.365-1.926,0.941-2.721c0.684-0.947-1.295-1.385-0.694-2.473
		c0.111-0.201,0.179-0.456,0.179-0.688c0.006-0.988-0.58-1.51-1.52-1.282c-0.449,0.108-0.908,0.345-1.264,0.641
		c-0.792,0.66-1.298,0.349-2.064-0.18c-1.412-0.972-3.068-1.735-4.814-1.209c-1.99,0.6-4.065,1.129-5.371,3.082
		c-0.512,0.768-1.756,1.032-2.326,0.35c-0.873-1.048-1.49-0.638-2.352-0.196c-0.546,0.279-1.178,0.447-1.829,0.353
		c-0.001,0.008-0.002,0.015-0.003,0.022c-0.03,0.049-0.06,0.099-0.09,0.148c0.021-0.061,0.043-0.117,0.064-0.175
		c0.009,0.002,0.019,0,0.028,0.002c0.166-2.709,1.625-4.987,2.757-7.466c-1.252-0.088-1.555,0.658-2.055,1.285
		c-0.372,0.472-0.879,1.338-1.787,0.238c-0.557-0.679-1.493-0.523-2.287,0.219c-0.819,0.771-1.761,1.314-2.793,1.672V250h250v-8.752
		v-36.334c-0.016,0.002-0.027,0.006-0.043,0.008c-0.324,0.041-0.627-0.113-0.748-0.461
		C249.053,204.02,249.262,203.688,249.584,203.42z M200.857,206.591c-0.668,0.119-1.387,0.429-1.824-0.411
		c-0.051-0.098,0.012-0.345,0.104-0.41c0.83-0.604,1.393-0.076,2.219,0.52C200.992,206.514,200.93,206.577,200.857,206.591z
		 M207.072,204.268c-0.148,0.487-0.551,0.803-1.088,0.741c-0.451-0.051-0.7-0.405-0.646-0.839c0.078-0.609,0.566-0.684,1.077-0.664
		C206.835,203.592,207.225,203.766,207.072,204.268z M52,242.236c0.771-0.778,1.367-0.648,2.194-0.258
		C53.42,242.609,52.854,242.295,52,242.236z M70.156,226.18c-0.464,0.522-1.111,0.564-1.762,0.536
		c-1.667-0.069-3.334-0.146-5.189-0.226c0.889-1.178,2.074-0.529,3.411-0.969c-1.644-0.508-3.243-0.125-3.931-1.785
		c-0.112-0.275-1.187-0.172-1.817-0.213c-0.901-0.058-1.8-0.084-2.784-0.127c0.379-0.907,1.03-0.772,1.527-0.871
		c0.879-0.172,1.58-0.572,1.563-1.502c-0.021-1.112,0.7-1.021,1.403-1.139c1.125-0.186,2.098,0.725,3.246,0.406
		c0.201-0.057,0.45,0.252,0.389,0.494c-0.318,1.229,0.719,2.04,0.942,3.119c0.384,1.841,0.472,1.812,2.413,1.23
		c0.182-0.055,0.492,0.033,0.624,0.17C70.439,225.566,70.371,225.938,70.156,226.18z M73.169,218.926
		c-0.065-0.299,0.145-0.4,0.382-0.468c0.305-0.043,0.41,0.163,0.464,0.397c0.069,0.303-0.139,0.42-0.379,0.463
		C73.34,219.375,73.221,219.163,73.169,218.926z M77.15,221.634c-0.76,0.527-2.397,0.251-3.453-0.618
		c1.054-0.186,2.027-0.383,3.01-0.51c0.309-0.04,0.582,0.17,0.691,0.525C77.484,221.316,77.333,221.509,77.15,221.634z
		 M77.088,217.434c0.267,0.646,0.773,1.297,0.13,1.963c-0.437,0.449-1.917-0.104-2.044-1.039c-0.2-1.479-1.152-2.111-2.166-2.842
		c-0.232-0.168-0.463-0.451-0.328-0.92c1.142-0.385,2.433,0.024,3.632-0.473c0.468-0.195,1.37-0.09,1.561,0.703
		c0.134,0.564-0.149,1.154-0.749,1.335C75.733,216.578,76.917,217.02,77.088,217.434z M79.524,217.998
		c-0.028,0.088-0.267,0.161-0.403,0.154c-0.203-0.014-0.476-0.068-0.381-0.369c0.027-0.092,0.263-0.117,0.403-0.176
		C79.342,217.676,79.616,217.7,79.524,217.998z M88.982,224.131c3.064-0.779,5.768,0.229,8.504,1.018
		C95.025,225.702,90.898,225.146,88.982,224.131z M102.571,222.566c-0.097,0.229-0.321,0.334-0.577,0.299
		c-2.811-0.377-5.618,0.351-8.433,0.009c-1.644-0.2-3.311-0.238-4.944-0.498c-1.173-0.187-2.311-0.425-3.504-0.174
		c-0.375,0.079-0.793-0.026-0.971-0.858c2.658-0.05,5.237-0.003,7.803-0.174c2.162-0.145,4.195,0.73,6.373,0.555
		c0.824-0.065,1.688,0.198,2.537-0.151c0.465-0.194,0.941-0.062,1.356,0.225C102.479,221.979,102.723,222.207,102.571,222.566z
		 M216.619,206.454c0.064-0.345,0.297-0.759,0.812-0.619c0.603,0.161,1.147,0.411,1.278,1.007c-0.192,0.643-0.56,0.995-1.056,0.868
		C217.07,207.561,216.479,207.213,216.619,206.454z M153.171,219.536c1.968,0.062,3.987-0.413,5.886,0.588
		c0.598,0.313,1.188-0.345,1.842-0.335c2.479,0.038,4.957,0.037,7.438,0.049c-1.023-1.021-2.172-1.521-3.633-1.184
		c-1.674,0.391-3.235-0.811-4.906-0.146c-0.312,0.124-0.684-0.396-0.656-0.838c0.023-0.479,0.334-0.604,0.814-0.599
		c2.766,0.035,5.479,0.516,8.203,0.922c1.098,0.164,2.285,0.181,3.277,0.064c2.332-0.271,4.562,0.438,6.879,0.238
		c2.418-0.207,4.742,0.994,7.232,0.934c-2.604,0.729-5.291,0.187-7.904,1.063c1.287,0.235,2.399,0.917,3.811,0.955
		c5.104,0.14,10.207,0.413,15.311,0.636c-3.604,0.691-7.08,0.952-10.574,0.859c-2.365-0.062-4.742,0.173-7.088-0.35
		c-0.229-0.052-0.531-0.127-0.709-0.027c-1.85,1.058-3.617-0.021-5.354-0.307c-2.971-0.49-5.75-0.498-8.325,1.268
		c-0.192,0.133-0.459,0.352-0.626,0.304c-1.309-0.382-2.652-0.487-3.998-0.565c-1.334-0.072-2.188-0.493-3.055-1.744
		c-0.578-0.84-2.436-0.803-3.768-0.688c-0.895,0.079-2.246,0.758-2.281-0.576C150.956,218.889,152.395,219.514,153.171,219.536z
		 M194.994,235.798c-0.346,0.829-0.963,0.779-1.541,0.761c-4.379-0.14-8.693,0.775-13.07,0.76
		c-5.559-0.02-11.126,0.671-16.736-0.506C174.041,236.475,184.438,236.139,194.994,235.798z M152.689,223.204
		c0.414-0.677,0.859-0.347,1.482-0.151C153.598,223.404,153.172,223.225,152.689,223.204z M152.93,238.4
		c-0.861,0.271-1.65,0.094-2.58-0.49C151.438,237.52,152.162,238.074,152.93,238.4z M150.43,222.374
		c0.219,0.013,0.449,0.063,0.456,0.39c-0.139,0.336-0.454,0.278-0.739,0.254c-0.221-0.02-0.51-0.095-0.453-0.359
		C149.775,222.277,150.146,222.355,150.43,222.374z M149.035,219.32c0.402,0.021,0.824,0.197,0.663,0.736
		c-0.134,0.439-0.571,0.639-0.952,0.508c-0.645-0.219-1.448-0.176-1.954-1.094C147.624,219.036,148.34,219.287,149.035,219.32z
		 M149.13,238.245c-6.12,0.509-12.235,1.208-18.392,0.296c0.039-0.171,0.045-0.254,0.076-0.326c0.025-0.066,0.072-0.137,0.129-0.178
		c0.508-0.374,1.086-0.207,1.627-0.161C138.082,238.343,143.629,237.266,149.13,238.245z M128.982,223.923
		c3.43-0.351,6.844-0.374,10.226,0.761C135.783,224.948,132.287,225.88,128.982,223.923z M141.766,224.456
		c0.818,0.198,1.596-0.908,2.408-0.072c0.066,0.069,0.035,0.357-0.047,0.425c-0.77,0.643-1.645,0.191-2.477,0.198
		c-0.072,0.002-0.146-0.058-0.441-0.188C141.531,224.602,141.672,224.436,141.766,224.456z M115.918,220.18
		c2.53,0.363,5.08,0.197,7.613,0.225c2.415,0.025,4.838,0.119,7.266-0.235c1.191-0.176,2.467,0.409,3.751,0.313
		c1.179-0.088,2.36,0.392,3.558-0.041c0.475-0.168,0.943,0.115,1.328,0.406c0.463,0.35,0.489,0.808,0.141,1.248
		c-0.283,0.355-0.629,0.459-0.988,0.066c-0.283-0.305-0.604-0.446-1.054-0.4c-5.146,0.51-10.276,0.209-15.401-0.275
		c-1.752-0.161-3.5-0.26-5.259-0.262c-0.756-0.002-1.585,0.199-2.338-0.481C114.953,220.018,115.479,220.115,115.918,220.18z
		 M115.997,223.739c-0.34-0.194-0.753-0.358-0.55-0.855c0.164-0.403,0.525-0.573,0.957-0.479c0.738,0.162,1.472,0.351,2.438,0.58
		C117.875,223.773,117.115,224.377,115.997,223.739z M120.368,224.547c-0.421,0.089-0.755-0.245-0.804-0.697
		c-0.061-0.55,0.188-0.926,0.768-0.979c0.314-0.03,0.634,0.011,0.951,0.011c1.898-0.006,3.57,1.014,5.484,1.092
		c-0.908,0.709-1.972,0.485-2.896,0.627C122.764,224.764,121.562,224.295,120.368,224.547z M145.512,240.646
		c-1.963,0.496-3.955,0.432-5.949,0.349c-1.836-0.077-3.672-0.149-5.508-0.231c-1.516-0.065-3.006-0.023-4.5,0.366
		c-1.882,0.496-4.317,0.252-6.559-0.589c2.82-0.783,5.316-0.706,7.75-0.76c4.857-0.104,9.719,0.051,14.568-0.387
		c0.459-0.041,1.07-0.064,1.078,0.598C146.396,240.415,145.91,240.547,145.512,240.646z M195.023,238.566
		c-4.533-0.295-8.998,0.591-13.502,0.75c-2.856,0.103-5.717-0.051-8.576,0.203c-4.984,0.442-9.99,0.188-14.994,0.637
		c-3.246,0.289-6.621,0.931-10.018,0.003c0.346-0.662,0.773-0.663,1.147-0.64c3.901,0.258,7.774-0.221,11.646-0.56
		c1.375-0.122,2.657,0.162,3.983,0.265c1.758,0.133,3.451-0.467,5.215-0.5c3.164-0.062,6.345,0.164,9.479-0.059
		c2.432-0.171,4.885-0.506,7.328-0.757c3.153-0.327,6.326-0.548,9.514-0.121C196.18,238.718,195.521,238.6,195.023,238.566z
		 M196.354,235.999c0.998-0.847,1.711-0.692,2.555-0.33C198.178,236.512,197.407,236.325,196.354,235.999z M197.902,220.206
		c-0.324-0.011-0.613-0.222-0.629-0.558c-0.022-0.562,0.434-0.52,0.803-0.5c0.385,0.018,0.765,0.088,0.941,0.527
		C198.818,220.208,198.348,220.223,197.902,220.206z M200.131,235.632c2.23-0.069,4.387-0.771,6.639-0.298
		C205.248,236.171,203.049,236.312,200.131,235.632z M212.223,220.902c-3.174-0.305-6.33,0.373-9.506,0.132
		c-0.996-0.075-1.896-0.138-2.406-1.396c3.731,0.18,7.271,0.086,10.801-0.391c0.9-0.123,1.604,0.422,2.285,0.846
		C213.184,220.854,212.691,220.947,212.223,220.902z M218.852,212.613c-0.119,0.457-0.509,0.592-0.92,0.582
		c-2.221-0.057-4.464,0.013-6.567-1.096c0.036-0.201-0.003-0.51,0.13-0.625c0.791-0.705-0.688-2.104,0.355-2.262
		c1.248-0.186,2.568-0.939,3.871-0.27c0.652,0.34,1.25-0.258,1.854,0.05c0.416,0.211,0.937,0.399,0.83,0.985
		c-0.097,0.521-0.601,0.441-0.974,0.418c-1.033-0.062-2.062-0.181-3.096-0.254c-0.428-0.033-0.836,0.104-0.824,0.604
		c0.01,0.438,0.35,0.75,0.789,0.729c0.629-0.037,1.248-0.211,1.877-0.263c0.711-0.06,1.443-0.116,2.109,0.222
		C218.754,211.67,218.99,212.081,218.852,212.613z"/>
	<path fill="#EE6438" d="M242.488,134.637c0.875-4.841-0.676-9.771,0.514-14.607c-0.975-2.813-0.584-5.793-1.068-8.671
		c-0.609-3.681-1.436-7.373-1.547-11.076c-0.092-3.045-0.951-5.805-1.67-8.662c-0.793-3.159-1.441-6.355-2.152-9.535
		c-0.832-3.722-1.504-7.465-4.191-10.494c-1.244-1.397-2.48-3.044-2.75-4.931c-0.604-4.243-2.971-7.633-4.996-11.19
		c-0.955-1.679-2.064-3.15-1.422-5.325c0.346-1.176-1.084-2.511-1.859-1.927c-1.146,0.859-1.592,0.254-2.191-0.4
		c-3.604-3.906-7.508-7.541-10.732-11.788c-0.244-0.321-0.465-0.717-0.793-0.904c-2.854-1.631-4.699-4.358-7.115-6.464
		c-3.668-3.197-7.645-5.949-12.086-7.897c-3.576-1.568-7.348-2.681-11.016-4.04c-3.689-1.364-7.564-2.074-11.34-3.081
		c-4.117-1.099-8.492-1.225-12.262-3.571c-0.158-0.099-0.561,0.111-0.812,0.241c-0.783,0.413-1.572,0.167-2.373,0.09
		c-5.395-0.521-10.652-1.919-16.023-2.534c-3.248-0.374-6.512-0.854-9.815-0.564c-2.407,0.213-4.759,0.781-7.126,1.092
		c-4.486,0.592-8.862,1.752-13.351,2.281c-1.29,0.15-2.594,0.185-3.833,0.732c-3.69,1.629-7.586,2.584-11.492,3.554
		c-2.219,0.553-4.533,1.028-6.598,1.908c-2.276,0.97-4.443,2.526-6.68,3.427c-2.263,0.912-3.633,3.662-6.51,3.159
		c-0.109-0.02-0.353,0.241-0.396,0.406c-0.468,1.844-2.391,2.048-3.499,3.152c-1.329,1.322-3.569,1.889-3.998,3.882
		c-0.334,1.552-0.96,1.515-2.062,1.122c-1.142-0.408-2.085-0.441-2.861,0.797c-1.279,2.057-2.9,3.307-5.431,1.72
		c-0.622-0.39-1.157,0.097-1.408,0.718c-0.199,0.489-0.285,0.998,0.482,1.104c0.395,0.057,1.023-0.429,1.093,0.553
		c-2.323,1.868-3.902,4.565-6.42,6.325c-3.47,2.427-6.69,5.188-9.382,8.418c-0.937,1.125-2.569,1.312-3.04,2.75
		c-0.341,1.044-0.93,1.778-1.999,2.075c-0.651,0.181-1.017,0.592-1.172,1.239c-0.239,1.016-0.872,1.805-1.512,2.596
		c-2.571,3.186-4.271,6.927-6.538,10.311c-0.103,0.152-0.191,0.414-0.129,0.56c0.865,2.027-0.427,3.606-1.423,4.931
		c-2.292,3.05-3.848,6.291-4.573,10.056c-1.01,5.221-3.22,10.16-3.766,15.502c-0.29,2.842-1.744,5.345-2.383,8.094
		c-1.116,4.809-0.978,9.821-2.384,14.584c-0.193,0.659-0.243,1.447-0.077,2.104c1.295,5.087,0.813,10.38,2.153,15.521
		c1.606,6.166,3.95,11.969,6.628,17.685c0.329,0.705,0.752,1.608,1.37,1.889c1.473,0.667,1.601,1.318,0.931,2.753
		c-0.178,0.385,2.38,0.565,2.203,2.166c-0.152,1.385,0.756,2.229,1.249,3.301c0.743,1.621,2.06,2.904,2.536,4.711
		c0.301,1.133,0.635,2.315,1.43,3.295c0.699,0.861,1.015,2.031,2.396,2.23c0.426,0.061,0.615,0.745,0.652,1.276
		c0.046,0.624,0.427,1.002,0.818,1.489c1.206,1.492,2.523,3.016,1.349,5.244c-0.473,0.896,0.511,1.905,1.105,1.354
		c1.786-1.658,2.367,0.229,3.292,1.046c0.715-0.601,1.363-1.05,1.884-1.617c0.485-0.532,0.64-1.135-0.006-1.776
		c-2.242-2.232-2.301-2.358-1.032-4.612c0.516,0.511,0.896,1.293,1.679,2.912c0.128,0.262,0.393,0.313,0.639,0.44
		c0.179,0.09,0.344,0.174,0.505,0.258c-0.003,0.027-0.012,0.055-0.014,0.082c0.036-0.011,0.064-0.026,0.099-0.039
		c1.014,0.521,1.674,0.888,2.086,1.269c-0.058,0.058-0.098,0.11-0.158,0.169c-3.277,3.042-3.222,3.1-0.117,6.337
		c0.185,0.188,0.312,0.255,0.501,0.082c-0.023-0.188,0.007-0.403-0.08-0.553c-1.143-1.933-1.075-1.909,0.349-3.47
		c-0.041,0.291-0.091,0.613-0.148,0.979c0.711,0.812,1.575-0.744,2.268,0.142c0.42,0.537,0.504,1.58,1.554,1.177
		c0.315-0.122,0.631-0.271,0.935-0.438c0.058,0.166,0.09,0.357,0.059,0.602c-0.113,0.9-0.86,1.431-1.56,2.021
		c0.722,0.841,1.409,1.646,2.081,2.429c0.837-0.427-0.123-1.893,1.328-1.731c0.248,0.026,0.497,0.044,0.731,0.075
		c0.218,0.168,0.443,0.336,0.715,0.539c-0.064-0.143-0.114-0.272-0.171-0.408c0.38,0.148,0.668,0.438,0.761,1.062
		c0.272,1.846,1.657,2.938,2.803,4.213c0.758,0.844,1.711,1.504,2.503,2.315c-0.068,0.36,0.085,0.621,0.353,0.728
		c0.15,0.059,0.271,0.145,0.41,0.213c0.096,0.146,0.188,0.293,0.27,0.451c0.752,1.498,2.183,2.338,3.275,3.5
		c2.354,2.506,5.937,3.607,7.648,6.826c0.2,0.376,0.92,0.445,1.226,0.807c1.118,1.316,3.1,0.49,4.104,1.521
		c1.372,1.406,3.319,2.087,4.502,3.445c1.887,2.156,3.751,3.966,6.57,4.894c1.038,0.343,1.752,1.104,2.943,0.423
		c0.788-0.451,1.173,0.328,1.688,0.832c1.9,1.862,3.988,3.394,6.889,3.006c0.992-0.134,1.732,0.24,2.367,1.019
		c1.472,1.797,3.903,2.036,5.656,3.399c0.415,0.322,1.084,0.357,1.412-0.025c1.361-1.604,2.664-1.529,4.044-0.062
		c0.309,0.33,0.753,0.15,1.139,0.201c3.88,0.516,7.724,1.215,11.367,2.704c2.731,1.114,5.641,1.089,8.25,0.261
		c1.662-0.529,2.97-0.947,4.481-0.084c1.232,0.7,2.146-0.248,3.105-0.634c1.325-0.53,2.276,1.338,3.397,0.515
		c1.909-1.403,3.881-2.021,6.194-1.306c0.164,0.05,0.435-0.021,0.573-0.136c1.998-1.602,5.089,0.082,6.828-2.273
		c2.312,0.144,4.226-0.921,6.283-1.769c1.842-0.759,4.123,0.007,6.03-1.132c0.578-0.346,1.138,0.158,1.611,0.553
		c0.325,0.268,0.748,0.453,1.102,0.204c0.478-0.341,0.419-0.862,0.181-1.354c-0.2-0.41-0.729-0.771-0.11-1.36
		c2.024,0.185,4.157-1.39,6.264,0.278c0.378,0.297,0.986-0.412,0.828-0.908c-0.192-0.623-0.69-1.15-1.239-2
		c1.614,0.262,2.769-0.178,3.752-1.159c0.573-0.576,1.483-1.183,2.147-0.939c2.166,0.796,2.771-0.76,3.726-2.038
		c0.897-1.203,1.914-2.346,3.021-3.354c0.557-0.509,1.604-1.104,2.131-0.897c1.432,0.562,2.018,0.088,2.486-1.162
		c0.17-0.441,0.564-0.975,0.979-1.115c2.66-0.916,4.473-3.031,6.666-4.602c2.951-2.115,6.521-3.533,7.863-7.47
		c0.395-1.153,1.662-1.979,2.822-2.66c3.693-2.155,6.998-4.749,9.375-8.396c1.303-1.998,3.291-3.776,1.287-6.441
		c1.02-0.568,2.084,1.089,2.225,0.191c0.449-2.926,4.656-4.008,3.564-7.603c-0.088-0.296,0.549-0.792,0.814-1.219
		c3.453-5.552,7.707-10.595,10.119-16.812c0.799-2.061,1.289-4.218,2.26-6.231c2.209-4.576,2.178-9.705,3.281-14.562
		c0.082-0.363-0.105-0.791-0.182-1.186C242.393,136.85,242.285,135.759,242.488,134.637z M35.465,176.014
		c0.507-0.459,1.105-0.381,1.646-0.1c0.29,0.148,0.233,0.493,0.043,0.788c-0.561,0.543-1.061,0.256-1.514-0.188
		C35.522,176.395,35.411,176.061,35.465,176.014z M20.793,90.207c1.537-0.618,1.958-2.195,3.088-3.119
		c0.243-0.196,0.561-0.2,1.261,0.265c-1.28,1.062-2.54,1.989-2.449,3.856c0.027,0.571-0.966,1.066-1.685,0.546
		C20.495,91.383,20.278,90.413,20.793,90.207z M15.578,115.808c1.196-0.535,1.296-1.43,1.292-2.437
		c-0.004-0.734,0.237-1.164,0.979-1.22c0.602-0.045,0.939,0.32,1.034,0.87c0.098,0.564,0.355,1.208-0.377,1.579
		c-0.174,0.089-0.396,0.083-0.58,0.159c-0.673,0.277-1.3,0.616-1.199,1.502c0.115,1.004,0.921,0.887,1.6,0.952
		c0.388,0.038,0.822-0.05,1.109,0.54c-0.391,1.309-1.242,2.155-2.609,2.836c-1.444,0.721-2.017,0.202-2.558-0.956
		C13.549,118.088,13.973,116.529,15.578,115.808z M13.317,138.507c-0.192-0.122-0.363-0.573-0.286-0.776
		c0.457-1.179,0.291-2.381,0.283-3.588c-0.01-1.64,0.037-3.275,1.98-3.994c0.512-0.187,0.802-0.771,0.615-1.25
		c-0.35-0.896-0.963-0.33-1.458-0.086c-0.604,0.295-1.268,0.484-1.464-0.334c-0.225-0.938-0.614-2.148,0.634-2.649
		c0.661-0.269,1.43-0.188,1.438-1.153c0.008-0.798-0.389-1.347-1.188-1.538c-0.435-0.103-0.784-0.291-0.596-0.781
		c0.154-0.397,0.565-0.604,0.984-0.575c1.39,0.095,3.263,2.227,2.876,3.494c-0.394,1.289-0.241,1.971,1.188,2.029
		c0.891,0.037,1.371,0.781,2.508,1.311c-3.047,0.062-3.198,0.152-3.252,2.307c-0.68,0.344-1.663,0.549-1.308,1.526
		c0.23,0.638,0.763,0.468,1.296,0.307c-0.001,0.235,0.001,0.47-0.008,0.705c-0.015,0.384-0.016,0.765-0.062,1.12
		c-0.396-0.213-0.852-0.1-1.092,0.404c-0.232,0.486-0.719,0.817-0.958,1.408c-0.488,0.457-0.479,1.439-1.026,1.926
		C14.103,138.602,13.672,138.732,13.317,138.507z M30.876,180.639c-3.158-0.718-3.47-1.396-2.54-4.658
		c-0.645-0.828-0.912,0.66-1.442,0.264c-0.478-0.354-1.023-0.696-1.341-1.176c-0.495-0.75-0.858-1.596-1.214-2.426
		c-0.478-1.109-0.946-2.229-1.325-3.373c-0.351-1.054-1.516-1.672-1.488-2.944c0.416-0.673,2.014,0.312,1.866-1.251
		c-0.06-0.641-0.261-1.232-0.92-1.42c-1.101-0.312-0.797,1.291-1.847,1.332c-1.054-2.106-1.917-4.354-2.43-6.688
		c-0.299-1.359-0.16-2.796,0.826-4.016c0.504-0.629,0.486-1.357-0.385-1.734c-1.19-0.517-0.529,1.086-1.477,1.152
		c-0.515-1.734-2.214-3.221-1.001-5.41c0.155-0.281,0.083-0.91-0.133-1.145c-1.882-2.025-0.539-4.47-0.881-6.686
		c-0.157-1.02,0.202-1.977,1.545-2.189c1.496-0.237,1.497,0.982,1.943,1.791c0.168,0.092,0.341,0.105,0.517,0.039
		c1.172-0.521,2.345-1.041,3.479-1.547c1.994,2.598,2.14,2.766-0.172,4.766c-1.707,1.479-2.026,3.671-3.402,5.256
		c-0.182,0.21-0.243,0.587,0.088,0.781c0.128,0.074,0.269,0.143,0.41,0.187c-0.269,0.543-0.224,1.103,0.276,1.624
		c0.28,0.292,0.695,0.354,0.973,0.006c0.129-0.163,0.241-0.335,0.331-0.513c0.006,0.3,0.101,0.565,0.461,0.682
		c1.006,0.312,1.491-0.854,2.408-0.983c0.603-0.084,0.794-0.822,0.457-1.19c-1.379-1.509-0.382-1.991,0.92-2.444
		c0.142-0.049,0.206-0.32,0.308-0.49c-0.104-0.164-0.192-0.34-0.308-0.498c-0.314-0.43-1.089-0.646-0.666-1.402
		c0.059-0.104,0.379-0.17,0.508-0.107c0.59,0.282,0.917,0.732,0.719,1.43c-0.054,0.191-0.103,0.385-0.156,0.572
		c0.974,1.131,2.17,2.182,0.468,3.715c-0.625,0.564-0.775,1.404,0.064,2.07c1.603,1.271,0.338,1.992-0.537,2.786
		c-1.061-3.387-2.133-3.567-4.946-0.577c1.847,0.297,2.657,1.863,3.855,2.875c0.87-0.64,0.784-1.535,1.088-2.261
		c0.59,0.438,1.046,0.972,1.058,1.744c0.026,1.854,0.476,3.188,2.799,2.59c0.4-0.104,0.711,0.294,0.754,0.752
		c0.033,0.347-0.218,0.743-0.432,0.702c-1.81-0.355-2.139,1.43-3.206,2.129c-0.501,0.327-0.726,0.686-0.366,1.219
		c0.354,0.53,0.807,0.957,1.499,0.607c0.781-0.402,1.602-0.604,2.244-1.407c0.825-1.026,1.799-0.795,2.263,0.407
		c0.287,0.743,0.376,1.527,0.982,2.15c0.884,0.908,0.454,1.869-0.083,2.77c-0.256,0.432-0.569,0.919-1.147,0.846
		c-0.736-0.097-0.891-0.718-0.93-1.347c-0.02-0.299,0.021-0.604,0.055-0.903c0.074-0.631,0.674-1.494-0.497-1.642
		c-0.812-0.101-1.62,0.155-1.905,1.124c-0.171,0.574-0.495,1.229-0.049,1.73c1.731,1.952,1.677,4.819,3.588,6.707
		c0.881,0.873,1.047,2.004-0.581,2.553c-0.513,0.17-0.834,0.596-0.63,1.179c0.174,0.5,0.633,0.394,1.023,0.349
		c0.609-0.068,1.033,0.121,1.353,0.506c-0.129,0.319-0.203,0.707-0.41,0.979C32.366,180.677,31.588,180.8,30.876,180.639z
		 M21.302,149.781c-0.029-0.213-0.112-0.428-0.281-0.641c-0.144-0.184-0.322-0.246-0.511-0.25c0.397-0.597,0.832-1.125,1.702-1.132
		C22.637,148.762,21.656,149.133,21.302,149.781z M34.837,186.809c0.581,0.52,0.849,1.135,0.215,1.817
		c-0.358,0.382-0.791,0.286-1.044-0.036c-0.446-0.566-0.624-1.238-0.252-1.91C34.202,186.27,34.565,186.562,34.837,186.809z
		 M35.947,180.74c0.108-0.135,0.313-0.036,0.846,0.587c0.404,0.473,0.967,0.771,1.557,0.159c0.478-0.492,0.629-0.867,0.045-1.5
		c-0.862-0.935-0.231-1.543,0.66-2.092c0.595,1.787,2.124,3.429-0.019,5.015c0.243,0.698-0.121,1.257-0.468,1.85
		C37.561,183.512,36.555,182.262,35.947,180.74z M40.05,186.695c-0.275-0.4-0.571-0.786-0.872-1.17
		c0.414-0.295,0.793-0.614,1.227-0.85c0.224,0.471,0.523,0.904,0.82,1.35c-0.178,0.404-0.457,0.773-0.804,1.141
		C40.281,187.018,40.159,186.854,40.05,186.695z"/>
</g>
<g id="Layer_2" display="none">
	<text transform="matrix(1 0 0 1 31.5 139.6152)" display="inline" fill="#14A872" font-family="'Roboto-Medium'" font-size="45">R</text>
	
		<text transform="matrix(1 0 0 1 59.5811 139.6152)" display="inline" fill="#14A872" font-family="'Roboto-Medium'" font-size="45">E</text>
	<text transform="matrix(1 0 0 1 86.375 139.6152)" display="inline" fill="#FFFBF8" font-family="'Roboto-Medium'" font-size="45">PAIR</text>
</g>
<g>
	<g>
		<path fill="#FFFFFF" d="M36.304,101.823c3.876,0,6.868,0.87,8.974,2.609c2.108,1.739,3.161,4.257,3.161,7.551
			c0,2.247-0.542,4.13-1.626,5.646c-1.085,1.517-2.595,2.683-4.533,3.499l7.544,13.988v0.299h-6.252l-6.736-12.92h-6.508v12.92
			h-5.836v-33.592H36.304 M30.327,117.789h5.999c1.969,0,3.507-0.496,4.614-1.488c1.107-0.992,1.661-2.349,1.661-4.071
			c0-1.801-0.511-3.192-1.534-4.177c-1.023-0.985-2.549-1.492-4.579-1.521h-6.161V117.789 M36.304,100.573H24.491h-1.25v1.25v33.592
			v1.25h1.25h5.836h1.25v-1.25v-11.67h4.5l6.386,12.248l0.351,0.672h0.758h6.252h1.25v-1.25v-0.299v-0.315l-0.15-0.277
			l-6.922-12.836c1.571-0.854,2.855-1.971,3.828-3.33c1.234-1.726,1.859-3.87,1.859-6.373c0-3.671-1.216-6.536-3.616-8.515
			C43.748,101.547,40.46,100.573,36.304,100.573L36.304,100.573z M31.577,107.78h4.911c1.674,0.025,2.929,0.42,3.712,1.173
			c0.774,0.745,1.151,1.816,1.151,3.276c0,1.362-0.407,2.39-1.245,3.14c-0.866,0.776-2.138,1.169-3.78,1.169h-4.749V107.78
			L31.577,107.78z"/>
	</g>
	<g>
		<path fill="#FFFFFF" d="M77.301,101.823v4.707H61.335v9.274h13.798v4.614H61.335v10.336h16.128v4.66H55.499v-33.592
			L77.301,101.823 M78.551,100.573h-1.25H55.499h-1.25v1.25v33.592v1.25h1.25h21.964h1.25v-1.25v-4.66v-1.25h-1.25H62.585v-7.836
			h12.548h1.25v-1.25v-4.614v-1.25h-1.25H62.585v-6.774h14.716h1.25v-1.25v-4.707V100.573L78.551,100.573z"/>
	</g>
</g>
</svg>
